<svg width="10" height="10" viewBox="0 0 10 10" fill="none" xmlns="http://www.w3.org/2000/svg">
<path d="M8.95915 0.407767C9.1359 0.26365 9.39676 0.274084 9.5615 0.438821C9.72617 0.603567 9.73666 0.864441 9.59255 1.04117L9.5615 1.07515L5.6363 4.99976L9.5615 8.92495L9.59255 8.95894C9.73661 9.13568 9.72621 9.39656 9.5615 9.56128C9.39678 9.726 9.1359 9.7364 8.95915 9.59234L8.92517 9.56128L4.99997 5.63609L1.07536 9.56128C0.899644 9.73693 0.614754 9.73693 0.439035 9.56128C0.263321 9.38557 0.263366 9.1007 0.439035 8.92495L4.36364 4.99976L0.439035 1.07515L0.40798 1.04117C0.263795 0.864416 0.274273 0.603584 0.439035 0.438821C0.603797 0.274059 0.86463 0.263581 1.04138 0.407767L1.07536 0.438821L4.99997 4.36343L8.92517 0.438821L8.95915 0.407767Z" fill="black"/>
</svg>
